# xmcd
#
# Track frame offsets:
#	150
#	15911
#	31941
#	40499
#	51916
#	67444
#	81603
#	93587
#	109117
#	120144
#	129939
#	140230
#
# Disc length: 2066 seconds
#
# Revision: 0
# Processed by: cddbd v1.5.2PL0 Copyright (c) Steve Scherf et al.
# Submitted via: audiograbber 1.83.01
#
DISCID=a808100c
DTITLE=Fred Rai - Einmal leben wie ein Cowboy
DYEAR=1900
DGENRE=Country
TTITLE0=El Paso
TTITLE1=Prärie
TTITLE2=Mexico
TTITLE3=Western Story
TTITLE4=Swanee River - Ruf des weissen Adlers
TTITLE5=Western City
TTITLE6=Einmal leben wie ein Cowboy
TTITLE7=Home on the Range - zeig mir das Land
TTITLE8=Was ein Caballero liebt
TTITLE9=Am Samstag darf ich ein Cowboy sein
TTITLE10=Weites Land
TTITLE11=Cavalry Song
EXTD=
EXTT0=
EXTT1=
EXTT2=
EXTT3=
EXTT4=
EXTT5=
EXTT6=
EXTT7=
EXTT8=
EXTT9=
EXTT10=
EXTT11=
PLAYORDER=
